<?xml version="1.0" encoding="utf-8"?>
<svg version="1.1" id="Layer_1" xmlns="http://www.w3.org/2000/svg" xmlns:xlink="http://www.w3.org/1999/xlink" x="0px" y="0px"
	 viewBox="0 0 256 256" enable-background="new 0 0 256 256" xml:space="preserve">
<g>
	<g>
		<path fill="#FFFFFF" d="M4.2,85.1h53.1v170.7H4.2V85.1z M30.8,0.2c17,0,30.7,13.8,30.7,30.8c0,17-13.8,30.8-30.7,30.8
			C13.7,61.8,0,48,0,31C0,14,13.7,0.2,30.8,0.2"/>
		<path fill="#FFFFFF" d="M90.6,85.1h50.9v23.3h0.7c7.1-13.4,24.4-27.6,50.2-27.6c53.7,0,63.6,35.3,63.6,81.3v93.6h-53v-83
			c0-19.8-0.3-45.3-27.6-45.3c-27.6,0-31.8,21.6-31.8,43.8v84.4h-53V85.1z"/>
	</g>
</g>
</svg>
