<?xml version="1.0" encoding="utf-8" ?>
<svg version="1.1" id="Layer_1" xmlns="http://www.w3.org/2000/svg" xmlns:xlink="http://www.w3.org/1999/xlink" x="0px" y="0px"
	 viewBox="0 0 256 256" enable-background="new 0 0 256 256" xml:space="preserve">
<path fill="#ffffff" d="M128,0C57.4,0,0,57.4,0,128c0,70.6,57.4,128,128,128c70.6,0,128-57.4,128-128
	C256,57.4,198.6,0,128,0z M212.6,59c15.2,18.6,24.4,42.3,24.7,68.1c-3.6-0.8-39.8-8.1-76.1-3.5c-0.8-1.9-1.6-3.8-2.4-5.6
	c-2.3-5.3-4.7-10.6-7.3-15.8C192,85.6,210.3,62.1,212.6,59z M128,18.8c27.8,0,53.2,10.4,72.5,27.5c-2,2.8-18.4,24.9-57.3,39.5
	c-17.9-32.9-37.8-60-40.8-64C110.6,19.9,119.2,18.8,128,18.8z M81.5,29.2c2.9,4,22.4,31,40.5,63.2C70.9,106,25.9,105.8,21,105.8
	C28.1,71.8,50.9,43.7,81.5,29.2z M18.7,128.2c0-1.1,0-2.2,0.1-3.3c4.8,0.1,57.8,0.8,112.4-15.6c3.1,6.1,6.1,12.3,8.9,18.6
	c-1.4,0.4-2.9,0.8-4.3,1.3c-56.4,18.2-86.4,67.9-88.9,72.1C29.3,181.9,18.7,156.2,18.7,128.2z M128,237.5
	c-25.3,0-48.6-8.6-67.1-23.1c2-4,24.1-46.8,85.8-68.3c0.2-0.1,0.5-0.2,0.7-0.2c15.3,39.9,21.7,73.3,23.3,82.9
	C157.6,234.4,143.1,237.5,128,237.5z M189.1,218.8c-1.1-6.7-6.9-38.7-21.2-78c34.3-5.5,64.4,3.5,68.1,4.7
	C231.1,175.9,213.6,202.2,189.1,218.8z"/>
</svg>