<?xml version="1.0" encoding="utf-8"?>
<!-- Generator: Adobe Illustrator 18.1.0, SVG Export Plug-In . SVG Version: 6.00 Build 0)  -->
<svg version="1.1" id="Layer_2" xmlns="http://www.w3.org/2000/svg" xmlns:xlink="http://www.w3.org/1999/xlink" x="0px" y="0px"
	 viewBox="0 0 1130 1110" enable-background="new 0 0 1130 1110" xml:space="preserve">
<g>
	<rect x="1100" fill="#FF00FF" width="30" height="30"/>
	<polygon fill="#FF00FF" points="690,0 660,0 150,0 150,10 660,10 660,30 1040,30 1040,0 	"/>
	<polyline fill="#FF00FF" points="60,10 0,10 0,0 60,0 	"/>
</g>
<g>
	<rect x="1100" y="40" fill="#FF00FF" width="30" height="30"/>
	<polygon fill="#FF00FF" points="690,40 660,40 150,40 150,50 660,50 660,70 1040,70 1040,40 	"/>
	<polyline fill="#FF00FF" points="60,50 0,50 0,40 60,40 	"/>
</g>
<g>
	<rect x="1100" y="80" fill="#FF00FF" width="30" height="30"/>
	<polygon fill="#FF00FF" points="690,80 660,80 150,80 150,90 660,90 660,110 1040,110 1040,80 	"/>
	<polyline fill="#FF00FF" points="60,90 0,90 0,80 60,80 	"/>
</g>
<g>
	<rect x="1100" y="120" fill="#FF00FF" width="30" height="30"/>
	<polygon fill="#FF00FF" points="690,120 660,120 150,120 150,130 660,130 660,150 1040,150 1040,120 	"/>
	<polyline fill="#FF00FF" points="60,130 0,130 0,120 60,120 	"/>
</g>
<g>
	<rect x="1100" y="160" fill="#FF00FF" width="30" height="30"/>
	<polygon fill="#FF00FF" points="690,160 660,160 150,160 150,170 660,170 660,190 1040,190 1040,160 	"/>
	<polyline fill="#FF00FF" points="60,170 0,170 0,160 60,160 	"/>
</g>
<g>
	<rect x="1100" y="200" fill="#FF00FF" width="30" height="30"/>
	<polygon fill="#FF00FF" points="690,200 660,200 150,200 150,210 660,210 660,230 1040,230 1040,200 	"/>
	<polyline fill="#FF00FF" points="60,210 0,210 0,200 60,200 	"/>
</g>
<g>
	<rect x="1100" y="240" fill="#FF00FF" width="30" height="30"/>
	<polygon fill="#FF00FF" points="690,240 660,240 150,240 150,250 660,250 660,270 1040,270 1040,240 	"/>
	<polyline fill="#FF00FF" points="60,250 0,250 0,240 60,240 	"/>
</g>
<g>
	<rect x="1100" y="280" fill="#FF00FF" width="30" height="30"/>
	<polygon fill="#FF00FF" points="690,280 660,280 150,280 150,290 660,290 660,310 1040,310 1040,280 	"/>
	<polyline fill="#FF00FF" points="60,290 0,290 0,280 60,280 	"/>
</g>
<g>
	<rect x="1100" y="320" fill="#FF00FF" width="30" height="30"/>
	<polygon fill="#FF00FF" points="690,320 660,320 150,320 150,330 660,330 660,350 1040,350 1040,320 	"/>
	<polyline fill="#FF00FF" points="60,330 0,330 0,320 60,320 	"/>
</g>
<g>
	<rect x="1100" y="360" fill="#FF00FF" width="30" height="30"/>
	<polygon fill="#FF00FF" points="690,360 660,360 150,360 150,370 660,370 660,390 1040,390 1040,360 	"/>
	<polyline fill="#FF00FF" points="60,370 0,370 0,360 60,360 	"/>
</g>
<g>
	<rect x="1100" y="400" fill="#FF00FF" width="30" height="30"/>
	<polygon fill="#FF00FF" points="690,400 660,400 150,400 150,410 660,410 660,430 1040,430 1040,400 	"/>
	<polyline fill="#FF00FF" points="60,410 0,410 0,400 60,400 	"/>
</g>
<g>
	<rect x="1100" y="440" fill="#FF00FF" width="30" height="30"/>
	<polygon fill="#FF00FF" points="690,440 660,440 150,440 150,450 660,450 660,470 1040,470 1040,440 	"/>
	<polyline fill="#FF00FF" points="60,450 0,450 0,440 60,440 	"/>
</g>
<g>
	<rect x="1100" y="480" fill="#FF00FF" width="30" height="30"/>
	<polygon fill="#FF00FF" points="690,480 660,480 150,480 150,490 660,490 660,510 1040,510 1040,480 	"/>
	<polyline fill="#FF00FF" points="60,490 0,490 0,480 60,480 	"/>
</g>
<g>
	<rect x="1100" y="520" fill="#FF00FF" width="30" height="30"/>
	<polygon fill="#FF00FF" points="690,520 660,520 150,520 150,530 660,530 660,550 1040,550 1040,520 	"/>
	<polyline fill="#FF00FF" points="60,530 0,530 0,520 60,520 	"/>
</g>
<g>
	<rect x="1100" y="560" fill="#FF00FF" width="30" height="30"/>
	<polygon fill="#FF00FF" points="690,560 660,560 150,560 150,570 660,570 660,590 1040,590 1040,560 	"/>
	<polyline fill="#FF00FF" points="60,570 0,570 0,560 60,560 	"/>
</g>
<g>
	<rect x="1100" y="600" fill="#FF00FF" width="30" height="30"/>
	<polygon fill="#FF00FF" points="690,600 660,600 150,600 150,610 660,610 660,630 1040,630 1040,600 	"/>
	<polyline fill="#FF00FF" points="60,610 0,610 0,600 60,600 	"/>
</g>
<g>
	<rect x="1100" y="640" fill="#FF00FF" width="30" height="30"/>
	<polygon fill="#FF00FF" points="690,640 660,640 150,640 150,650 660,650 660,670 1040,670 1040,640 	"/>
	<polyline fill="#FF00FF" points="60,650 0,650 0,640 60,640 	"/>
</g>
<g>
	<rect x="1100" y="680" fill="#FF00FF" width="30" height="30"/>
	<polygon fill="#FF00FF" points="690,680 660,680 150,680 150,690 660,690 660,710 1040,710 1040,680 	"/>
	<polyline fill="#FF00FF" points="60,690 0,690 0,680 60,680 	"/>
</g>
<g>
	<rect x="1100" y="880" fill="#FF00FF" width="30" height="30"/>
	<polygon fill="#FF00FF" points="690,880 660,880 150,880 150,890 660,890 660,910 1040,910 1040,880 	"/>
	<polyline fill="#FF00FF" points="60,890 0,890 0,880 60,880 	"/>
</g>
<g>
	<rect x="1100" y="920" fill="#FF00FF" width="30" height="30"/>
	<polygon fill="#FF00FF" points="690,920 660,920 150,920 150,930 660,930 660,950 1040,950 1040,920 	"/>
	<polyline fill="#FF00FF" points="60,930 0,930 0,920 60,920 	"/>
</g>
<g>
	<rect x="1100" y="960" fill="#FF00FF" width="30" height="30"/>
	<polygon fill="#FF00FF" points="690,960 660,960 150,960 150,970 660,970 660,990 1040,990 1040,960 	"/>
	<polyline fill="#FF00FF" points="60,970 0,970 0,960 60,960 	"/>
</g>
<g>
	<rect x="1100" y="1000" fill="#FF00FF" width="30" height="30"/>
	<polygon fill="#FF00FF" points="690,1000 660,1000 150,1000 150,1010 660,1010 660,1030 1040,1030 1040,1000 	"/>
	<polyline fill="#FF00FF" points="60,1010 0,1010 0,1000 60,1000 	"/>
</g>
<g>
	<rect x="1100" y="1040" fill="#FF00FF" width="30" height="30"/>
	<polygon fill="#FF00FF" points="690,1040 660,1040 150,1040 150,1050 660,1050 660,1070 1040,1070 1040,1040 	"/>
	<polyline fill="#FF00FF" points="60,1050 0,1050 0,1040 60,1040 	"/>
</g>
<g>
	<rect x="1100" y="1080" fill="#FF00FF" width="30" height="30"/>
	<polygon fill="#FF00FF" points="690,1080 660,1080 150,1080 150,1090 660,1090 660,1110 1040,1110 1040,1080 	"/>
	<polyline fill="#FF00FF" points="60,1090 0,1090 0,1080 60,1080 	"/>
</g>
</svg>
