<?xml version="1.0" encoding="utf-8"?>
<!-- Generator: Adobe Illustrator 18.1.0, SVG Export Plug-In . SVG Version: 6.00 Build 0)  -->
<svg version="1.1" id="glitch" xmlns="http://www.w3.org/2000/svg" xmlns:xlink="http://www.w3.org/1999/xlink" x="0px" y="0px"
	 viewBox="0 0 1014 460" enable-background="new 0 0 1014 460" xml:space="preserve">
<line fill="none" stroke="#91298A" stroke-width="4" stroke-miterlimit="10" x1="0" y1="0" x2="0" y2="460"/>
<line fill="none" stroke="#91298A" stroke-width="4" stroke-miterlimit="10" x1="10" y1="0" x2="10" y2="460"/>
<line fill="none" stroke="#91298A" stroke-width="4" stroke-miterlimit="10" x1="30" y1="0" x2="30" y2="460"/>
<line fill="none" stroke="#91298A" stroke-width="4" stroke-miterlimit="10" x1="40" y1="0" x2="40" y2="460"/>
<line fill="none" stroke="#91298A" stroke-width="4" stroke-miterlimit="10" x1="50" y1="0" x2="50" y2="460"/>
<line fill="none" stroke="#91298A" stroke-width="4" stroke-miterlimit="10" x1="70" y1="0" x2="70" y2="460"/>
<line fill="none" stroke="#91298A" stroke-width="4" stroke-miterlimit="10" x1="80" y1="0" x2="80" y2="460"/>
<line fill="none" stroke="#91298A" stroke-width="4" stroke-miterlimit="10" x1="90" y1="0" x2="90" y2="460"/>
<line fill="none" stroke="#91298A" stroke-width="4" stroke-miterlimit="10" x1="150" y1="400" x2="150" y2="460"/>
<line fill="none" stroke="#91298A" stroke-width="4" stroke-miterlimit="10" x1="160" y1="400" x2="160" y2="460"/>
<line fill="none" stroke="#91298A" stroke-width="4" stroke-miterlimit="10" x1="170" y1="400" x2="170" y2="460"/>
<line fill="none" stroke="#91298A" stroke-width="4" stroke-miterlimit="10" x1="180" y1="400" x2="180" y2="460"/>
<line fill="none" stroke="#91298A" stroke-width="4" stroke-miterlimit="10" x1="190" y1="400" x2="190" y2="460"/>
<line fill="none" stroke="#91298A" stroke-width="4" stroke-miterlimit="10" x1="200" y1="400" x2="200" y2="460"/>
<line fill="none" stroke="#91298A" stroke-width="4" stroke-miterlimit="10" x1="220" y1="0" x2="220" y2="460"/>
<line fill="none" stroke="#91298A" stroke-width="4" stroke-miterlimit="10" x1="230" y1="0" x2="230" y2="460"/>
<line fill="none" stroke="#91298A" stroke-width="4" stroke-miterlimit="10" x1="250" y1="80" x2="250" y2="460"/>
<line fill="none" stroke="#91298A" stroke-width="4" stroke-miterlimit="10" x1="260" y1="80" x2="260" y2="460"/>
<line fill="none" stroke="#91298A" stroke-width="4" stroke-miterlimit="10" x1="270" y1="80" x2="270" y2="460"/>
<line fill="none" stroke="#91298A" stroke-width="4" stroke-miterlimit="10" x1="280" y1="80" x2="280" y2="460"/>
<line fill="none" stroke="#91298A" stroke-width="4" stroke-miterlimit="10" x1="300" y1="0" x2="300" y2="460"/>
<line fill="none" stroke="#91298A" stroke-width="4" stroke-miterlimit="10" x1="310" y1="0" x2="310" y2="460"/>
<line fill="none" stroke="#91298A" stroke-width="4" stroke-miterlimit="10" x1="360" y1="270" x2="360" y2="460"/>
<line fill="none" stroke="#91298A" stroke-width="4" stroke-miterlimit="10" x1="370" y1="270" x2="370" y2="460"/>
<line fill="none" stroke="#91298A" stroke-width="4" stroke-miterlimit="10" x1="380" y1="270" x2="380" y2="460"/>
<line fill="none" stroke="#91298A" stroke-width="4" stroke-miterlimit="10" x1="390" y1="270" x2="390" y2="460"/>
<line fill="none" stroke="#91298A" stroke-width="4" stroke-miterlimit="10" x1="410" y1="270" x2="410" y2="460"/>
<line fill="none" stroke="#91298A" stroke-width="4" stroke-miterlimit="10" x1="500" y1="0" x2="500" y2="460"/>
<line fill="none" stroke="#91298A" stroke-width="4" stroke-miterlimit="10" x1="510" y1="0" x2="510" y2="460"/>
<line fill="none" stroke="#91298A" stroke-width="4" stroke-miterlimit="10" x1="540" y1="0" x2="540" y2="460"/>
<line fill="none" stroke="#91298A" stroke-width="4" stroke-miterlimit="10" x1="550" y1="0" x2="550" y2="460"/>
<line fill="none" stroke="#91298A" stroke-width="4" stroke-miterlimit="10" x1="560" y1="0" x2="560" y2="460"/>
<line fill="none" stroke="#91298A" stroke-width="4" stroke-miterlimit="10" x1="580" y1="370" x2="580" y2="460"/>
<line fill="none" stroke="#91298A" stroke-width="4" stroke-miterlimit="10" x1="600" y1="370" x2="600" y2="460"/>
<line fill="none" stroke="#91298A" stroke-width="4" stroke-miterlimit="10" x1="780" y1="140" x2="780" y2="460"/>
<line fill="none" stroke="#91298A" stroke-width="4" stroke-miterlimit="10" x1="810" y1="140" x2="810" y2="460"/>
<line fill="none" stroke="#91298A" stroke-width="4" stroke-miterlimit="10" x1="820" y1="140" x2="820" y2="460"/>
<line fill="none" stroke="#91298A" stroke-width="4" stroke-miterlimit="10" x1="830" y1="140" x2="830" y2="460"/>
<line fill="none" stroke="#91298A" stroke-width="4" stroke-miterlimit="10" x1="840" y1="140" x2="840" y2="460"/>
<line fill="none" stroke="#91298A" stroke-width="4" stroke-miterlimit="10" x1="850" y1="140" x2="850" y2="460"/>
<line fill="none" stroke="#91298A" stroke-width="4" stroke-miterlimit="10" x1="860" y1="140" x2="860" y2="460"/>
<line fill="none" stroke="#91298A" stroke-width="4" stroke-miterlimit="10" x1="890" y1="140" x2="890" y2="460"/>
<line fill="none" stroke="#91298A" stroke-width="4" stroke-miterlimit="10" x1="900" y1="140" x2="900" y2="460"/>
<line fill="none" stroke="#91298A" stroke-width="4" stroke-miterlimit="10" x1="930" y1="80" x2="930" y2="460"/>
<line fill="none" stroke="#91298A" stroke-width="4" stroke-miterlimit="10" x1="940" y1="80" x2="940" y2="460"/>
<line fill="none" stroke="#91298A" stroke-width="4" stroke-miterlimit="10" x1="950" y1="80" x2="950" y2="460"/>
<line fill="none" stroke="#91298A" stroke-width="4" stroke-miterlimit="10" x1="960" y1="80" x2="960" y2="460"/>
<line fill="none" stroke="#91298A" stroke-width="4" stroke-miterlimit="10" x1="970" y1="80" x2="970" y2="460"/>
<line fill="none" stroke="#91298A" stroke-width="4" stroke-miterlimit="10" x1="980" y1="80" x2="980" y2="460"/>
<line fill="none" stroke="#91298A" stroke-width="4" stroke-miterlimit="10" x1="1010" y1="80" x2="1010" y2="460"/>
</svg>
