<?xml version="1.0" encoding="utf-8"?>
<!-- Generator: Adobe Illustrator 18.1.0, SVG Export Plug-In . SVG Version: 6.00 Build 0)  -->
<svg version="1.1" id="Layer_2" xmlns="http://www.w3.org/2000/svg" xmlns:xlink="http://www.w3.org/1999/xlink" x="0px" y="0px"
	 viewBox="0 0 1550 190" enable-background="new 0 0 1550 190" xml:space="preserve">
<rect x="130" fill="#FF00FF" width="30" height="30"/>
<rect x="210" fill="#FF00FF" width="30" height="30"/>
<rect x="250" fill="#FF00FF" width="30" height="30"/>
<rect x="650" fill="#FF00FF" width="30" height="30"/>
<rect x="770" fill="#FF00FF" width="60" height="30"/>
<rect x="860" fill="#FF00FF" width="30" height="30"/>
<rect x="930" y="40" fill="#FF00FF" width="30" height="30"/>
<rect x="970" y="40" fill="#FF00FF" width="30" height="30"/>
<rect x="1010" y="40" fill="#FF00FF" width="30" height="30"/>
<rect x="1010" y="80" fill="#FF00FF" width="30" height="30"/>
<rect x="1050" y="80" fill="#FF00FF" width="30" height="30"/>
<rect x="1050" y="120" fill="#FF00FF" width="30" height="30"/>
<rect x="1010" y="120" fill="#FF00FF" width="30" height="30"/>
<rect x="970" y="120" fill="#FF00FF" width="30" height="30"/>
<rect x="930" y="120" fill="#FF00FF" width="30" height="30"/>
<rect x="890" y="80" fill="#FF00FF" width="30" height="30"/>
<rect x="610" y="80" fill="#FF00FF" width="190" height="30"/>
<rect x="770" y="160" fill="#FF00FF" width="30" height="30"/>
<rect x="810" y="160" fill="#FF00FF" width="30" height="30"/>
<rect x="730" y="160" fill="#FF00FF" width="30" height="30"/>
<rect x="690" y="160" fill="#FF00FF" width="30" height="30"/>
<rect x="610" y="120" fill="#FF00FF" width="30" height="30"/>
<rect x="570" y="80" fill="#FF00FF" width="30" height="30"/>
<rect x="570" y="40" fill="#FF00FF" width="30" height="30"/>
<rect x="530" y="40" fill="#FF00FF" width="30" height="30"/>
<rect x="530" y="80" fill="#FF00FF" width="30" height="30"/>
<rect x="530" y="120" fill="#FF00FF" width="30" height="30"/>
<rect x="490" y="120" fill="#FF00FF" width="30" height="30"/>
<rect x="450" y="120" fill="#FF00FF" width="30" height="30"/>
<rect x="450" y="80" fill="#FF00FF" width="30" height="30"/>
<rect x="330" y="120" fill="#FF00FF" width="110" height="30"/>
<rect x="410" y="160" fill="#FF00FF" width="190" height="30"/>
<rect x="370" y="160" fill="#FF00FF" width="30" height="30"/>
<rect x="330" y="160" fill="#FF00FF" width="30" height="30"/>
<rect x="250" y="160" fill="#FF00FF" width="30" height="30"/>
<rect x="70" y="120" fill="#FF00FF" width="210" height="30"/>
<rect y="120" fill="#FF00FF" width="30" height="30"/>
<rect x="280" y="40" fill="#FF00FF" width="30" height="30"/>
<rect x="330" y="40" fill="#FF00FF" width="70" height="30"/>
<rect x="730" y="120" fill="#FF00FF" width="190" height="30"/>
<rect x="970" y="80" fill="#FF00FF" width="30" height="30"/>
<rect x="890" y="160" fill="#FF00FF" width="110" height="30"/>
<rect x="1050" y="160" fill="#FF00FF" width="200" height="30"/>
<rect x="1310" y="160" fill="#FF00FF" width="30" height="30"/>
<rect x="1090" y="80" fill="#FF00FF" width="120" height="30"/>
<rect x="1250" y="80" fill="#FF00FF" width="210" height="30"/>
<rect x="1512" y="80" fill="#FF00FF" width="30" height="30"/>
<rect x="1090" fill="#FF00FF" width="30" height="30"/>
<rect x="1180" fill="#FF00FF" width="30" height="30"/>
</svg>
