<?xml version="1.0" encoding="utf-8"?>
<!-- Generator: Adobe Illustrator 18.1.0, SVG Export Plug-In . SVG Version: 6.00 Build 0)  -->
<svg version="1.1" id="glitch" xmlns="http://www.w3.org/2000/svg" xmlns:xlink="http://www.w3.org/1999/xlink" x="0px" y="0px"
	 viewBox="0 0 924 164" enable-background="new 0 0 924 164" xml:space="preserve">
<line fill="none" stroke="#91298A" stroke-width="4" stroke-miterlimit="10" x1="1" y1="0" x2="1" y2="134"/>
<line fill="none" stroke="#91298A" stroke-width="4" stroke-miterlimit="10" x1="11" y1="0" x2="11" y2="134"/>
<line fill="none" stroke="#91298A" stroke-width="4" stroke-miterlimit="10" x1="21" y1="0" x2="21" y2="134"/>
<line fill="none" stroke="#91298A" stroke-width="4" stroke-miterlimit="10" x1="31" y1="0" x2="31" y2="134"/>
<line fill="none" stroke="#91298A" stroke-width="4" stroke-miterlimit="10" x1="41" y1="0" x2="41" y2="134"/>
<line fill="none" stroke="#91298A" stroke-width="4" stroke-miterlimit="10" x1="51" y1="0" x2="51" y2="134"/>
<line fill="none" stroke="#91298A" stroke-width="4" stroke-miterlimit="10" x1="111" y1="0" x2="111" y2="164"/>
<line fill="none" stroke="#91298A" stroke-width="4" stroke-miterlimit="10" x1="121" y1="0" x2="121" y2="164"/>
<line fill="none" stroke="#91298A" stroke-width="4" stroke-miterlimit="10" x1="131" y1="0" x2="131" y2="164"/>
<line fill="none" stroke="#91298A" stroke-width="4" stroke-miterlimit="10" x1="141" y1="0" x2="141" y2="164"/>
<line fill="none" stroke="#91298A" stroke-width="4" stroke-miterlimit="10" x1="151" y1="0" x2="151" y2="164"/>
<line fill="none" stroke="#91298A" stroke-width="4" stroke-miterlimit="10" x1="161" y1="0" x2="161" y2="164"/>
<line fill="none" stroke="#91298A" stroke-width="4" stroke-miterlimit="10" x1="171" y1="0" x2="171" y2="164"/>
<line fill="none" stroke="#91298A" stroke-width="4" stroke-miterlimit="10" x1="181" y1="0" x2="181" y2="164"/>
<line fill="none" stroke="#91298A" stroke-width="4" stroke-miterlimit="10" x1="191" y1="0" x2="191" y2="164"/>
<line fill="none" stroke="#91298A" stroke-width="4" stroke-miterlimit="10" x1="201" y1="0" x2="201" y2="164"/>
<line fill="none" stroke="#91298A" stroke-width="4" stroke-miterlimit="10" x1="211" y1="0" x2="211" y2="164"/>
<line fill="none" stroke="#91298A" stroke-width="4" stroke-miterlimit="10" x1="221" y1="0" x2="221" y2="164"/>
<line fill="none" stroke="#91298A" stroke-width="4" stroke-miterlimit="10" x1="231" y1="0" x2="231" y2="164"/>
<line fill="none" stroke="#91298A" stroke-width="4" stroke-miterlimit="10" x1="331" y1="0" x2="331" y2="134"/>
<line fill="none" stroke="#91298A" stroke-width="4" stroke-miterlimit="10" x1="341" y1="0" x2="341" y2="134"/>
<line fill="none" stroke="#91298A" stroke-width="4" stroke-miterlimit="10" x1="351" y1="0" x2="351" y2="134"/>
<line fill="none" stroke="#91298A" stroke-width="4" stroke-miterlimit="10" x1="361" y1="0" x2="361" y2="134"/>
<line fill="none" stroke="#91298A" stroke-width="4" stroke-miterlimit="10" x1="371" y1="0" x2="371" y2="134"/>
<line fill="none" stroke="#91298A" stroke-width="4" stroke-miterlimit="10" x1="381" y1="0" x2="381" y2="134"/>
<line fill="none" stroke="#91298A" stroke-width="4" stroke-miterlimit="10" x1="461" y1="0" x2="461" y2="74"/>
<line fill="none" stroke="#91298A" stroke-width="4" stroke-miterlimit="10" x1="471" y1="0" x2="471" y2="74"/>
<line fill="none" stroke="#91298A" stroke-width="4" stroke-miterlimit="10" x1="481" y1="0" x2="481" y2="74"/>
<line fill="none" stroke="#91298A" stroke-width="4" stroke-miterlimit="10" x1="491" y1="0" x2="491" y2="74"/>
<line fill="none" stroke="#91298A" stroke-width="4" stroke-miterlimit="10" x1="501" y1="0" x2="501" y2="74"/>
<line fill="none" stroke="#91298A" stroke-width="4" stroke-miterlimit="10" x1="511" y1="0" x2="511" y2="74"/>
<line fill="none" stroke="#91298A" stroke-width="4" stroke-miterlimit="10" x1="541" y1="0" x2="541" y2="74"/>
<line fill="none" stroke="#91298A" stroke-width="4" stroke-miterlimit="10" x1="551" y1="0" x2="551" y2="74"/>
<line fill="none" stroke="#91298A" stroke-width="4" stroke-miterlimit="10" x1="561" y1="0" x2="561" y2="74"/>
<line fill="none" stroke="#91298A" stroke-width="4" stroke-miterlimit="10" x1="571" y1="0" x2="571" y2="74"/>
<line fill="none" stroke="#91298A" stroke-width="4" stroke-miterlimit="10" x1="581" y1="0" x2="581" y2="74"/>
<line fill="none" stroke="#91298A" stroke-width="4" stroke-miterlimit="10" x1="591" y1="0" x2="591" y2="74"/>
<line fill="none" stroke="#91298A" stroke-width="4" stroke-miterlimit="10" x1="621" y1="0" x2="621" y2="164"/>
<line fill="none" stroke="#91298A" stroke-width="4" stroke-miterlimit="10" x1="631" y1="0" x2="631" y2="164"/>
<line fill="none" stroke="#91298A" stroke-width="4" stroke-miterlimit="10" x1="661" y1="0" x2="661" y2="164"/>
<line fill="none" stroke="#91298A" stroke-width="4" stroke-miterlimit="10" x1="671" y1="0" x2="671" y2="164"/>
<line fill="none" stroke="#91298A" stroke-width="4" stroke-miterlimit="10" x1="681" y1="0" x2="681" y2="164"/>
<line fill="none" stroke="#91298A" stroke-width="4" stroke-miterlimit="10" x1="691" y1="0" x2="691" y2="164"/>
<line fill="none" stroke="#91298A" stroke-width="4" stroke-miterlimit="10" x1="701" y1="0" x2="701" y2="164"/>
<line fill="none" stroke="#91298A" stroke-width="4" stroke-miterlimit="10" x1="711" y1="0" x2="711" y2="164"/>
<line fill="none" stroke="#91298A" stroke-width="4" stroke-miterlimit="10" x1="721" y1="0" x2="721" y2="164"/>
<line fill="none" stroke="#91298A" stroke-width="4" stroke-miterlimit="10" x1="731" y1="0" x2="731" y2="164"/>
<line fill="none" stroke="#91298A" stroke-width="4" stroke-miterlimit="10" x1="741" y1="0" x2="741" y2="164"/>
<line fill="none" stroke="#91298A" stroke-width="4" stroke-miterlimit="10" x1="751" y1="0" x2="751" y2="164"/>
<line fill="none" stroke="#91298A" stroke-width="4" stroke-miterlimit="10" x1="761" y1="0" x2="761" y2="164"/>
<line fill="none" stroke="#91298A" stroke-width="4" stroke-miterlimit="10" x1="771" y1="0" x2="771" y2="164"/>
<line fill="none" stroke="#91298A" stroke-width="4" stroke-miterlimit="10" x1="801" y1="0" x2="801" y2="134"/>
<line fill="none" stroke="#91298A" stroke-width="4" stroke-miterlimit="10" x1="811" y1="0" x2="811" y2="134"/>
<line fill="none" stroke="#91298A" stroke-width="4" stroke-miterlimit="10" x1="841" y1="0" x2="841" y2="164"/>
<line fill="none" stroke="#91298A" stroke-width="4" stroke-miterlimit="10" x1="851" y1="0" x2="851" y2="164"/>
<line fill="none" stroke="#91298A" stroke-width="4" stroke-miterlimit="10" x1="861" y1="0" x2="861" y2="164"/>
<line fill="none" stroke="#91298A" stroke-width="4" stroke-miterlimit="10" x1="871" y1="0" x2="871" y2="164"/>
<line fill="none" stroke="#91298A" stroke-width="4" stroke-miterlimit="10" x1="881" y1="0" x2="881" y2="164"/>
<line fill="none" stroke="#91298A" stroke-width="4" stroke-miterlimit="10" x1="891" y1="0" x2="891" y2="164"/>
<line fill="none" stroke="#91298A" stroke-width="4" stroke-miterlimit="10" x1="921" y1="0" x2="921" y2="164"/>
</svg>
