<?xml version="1.0" encoding="utf-8"?>
<!-- Generator: Adobe Illustrator 18.1.0, SVG Export Plug-In . SVG Version: 6.00 Build 0)  -->
<svg version="1.1" id="Glitch" xmlns="http://www.w3.org/2000/svg" xmlns:xlink="http://www.w3.org/1999/xlink" x="0px" y="0px"
	 viewBox="0 0 674 248" enable-background="new 0 0 674 248" xml:space="preserve">
<line fill="none" stroke="#91298A" stroke-width="4" stroke-miterlimit="10" x1="0.7" y1="0" x2="0" y2="248"/>
<line fill="none" stroke="#91298A" stroke-width="4" stroke-miterlimit="10" x1="10.7" y1="0" x2="10" y2="248"/>
<line fill="none" stroke="#91298A" stroke-width="4" stroke-miterlimit="10" x1="20.7" y1="0" x2="20" y2="248"/>
<line fill="none" stroke="#91298A" stroke-width="4" stroke-miterlimit="10" x1="30.7" y1="0" x2="30" y2="248"/>
<line fill="none" stroke="#91298A" stroke-width="4" stroke-miterlimit="10" x1="40.7" y1="0" x2="40" y2="248"/>
<line fill="none" stroke="#91298A" stroke-width="4" stroke-miterlimit="10" x1="50.7" y1="0" x2="50" y2="248"/>
<line fill="none" stroke="#91298A" stroke-width="4" stroke-miterlimit="10" x1="100.7" y1="0" x2="100" y2="248"/>
<line fill="none" stroke="#91298A" stroke-width="4" stroke-miterlimit="10" x1="110.7" y1="0" x2="110" y2="248"/>
<line fill="none" stroke="#91298A" stroke-width="4" stroke-miterlimit="10" x1="120.7" y1="0" x2="120" y2="248"/>
<line fill="none" stroke="#91298A" stroke-width="4" stroke-miterlimit="10" x1="130.7" y1="0" x2="130" y2="248"/>
<line fill="none" stroke="#91298A" stroke-width="4" stroke-miterlimit="10" x1="210.7" y1="0" x2="210" y2="248"/>
<line fill="none" stroke="#91298A" stroke-width="4" stroke-miterlimit="10" x1="220.7" y1="0" x2="220" y2="248"/>
<line fill="none" stroke="#91298A" stroke-width="4" stroke-miterlimit="10" x1="230.7" y1="0" x2="230" y2="248"/>
<line fill="none" stroke="#91298A" stroke-width="4" stroke-miterlimit="10" x1="240.7" y1="0" x2="240" y2="248"/>
<line fill="none" stroke="#91298A" stroke-width="4" stroke-miterlimit="10" x1="260.7" y1="0" x2="260" y2="248"/>
<line fill="none" stroke="#91298A" stroke-width="4" stroke-miterlimit="10" x1="330.7" y1="134" x2="330" y2="248"/>
<line fill="none" stroke="#91298A" stroke-width="4" stroke-miterlimit="10" x1="340.7" y1="134" x2="340" y2="248"/>
<line fill="none" stroke="#91298A" stroke-width="4" stroke-miterlimit="10" x1="370.7" y1="134" x2="370" y2="248"/>
<line fill="none" stroke="#91298A" stroke-width="4" stroke-miterlimit="10" x1="380.7" y1="134" x2="380" y2="248"/>
<line fill="none" stroke="#91298A" stroke-width="4" stroke-miterlimit="10" x1="390.7" y1="134" x2="390" y2="248"/>
<line fill="none" stroke="#91298A" stroke-width="4" stroke-miterlimit="10" x1="410.7" y1="134" x2="410" y2="248"/>
<line fill="none" stroke="#91298A" stroke-width="4" stroke-miterlimit="10" x1="430.7" y1="134" x2="430" y2="248"/>
<line fill="none" stroke="#91298A" stroke-width="4" stroke-miterlimit="10" x1="480.7" y1="134" x2="480" y2="248"/>
<line fill="none" stroke="#91298A" stroke-width="4" stroke-miterlimit="10" x1="510.7" y1="134" x2="510" y2="248"/>
<line fill="none" stroke="#91298A" stroke-width="4" stroke-miterlimit="10" x1="520.7" y1="134" x2="520" y2="248"/>
<line fill="none" stroke="#91298A" stroke-width="4" stroke-miterlimit="10" x1="530.7" y1="134" x2="530" y2="248"/>
<line fill="none" stroke="#91298A" stroke-width="4" stroke-miterlimit="10" x1="540.7" y1="134" x2="540" y2="248"/>
<line fill="none" stroke="#91298A" stroke-width="4" stroke-miterlimit="10" x1="550.7" y1="134" x2="550" y2="248"/>
<line fill="none" stroke="#91298A" stroke-width="4" stroke-miterlimit="10" x1="560.7" y1="134" x2="560" y2="248"/>
<line fill="none" stroke="#91298A" stroke-width="4" stroke-miterlimit="10" x1="590.7" y1="134" x2="590" y2="248"/>
<line fill="none" stroke="#91298A" stroke-width="4" stroke-miterlimit="10" x1="600.7" y1="134" x2="600" y2="248"/>
<line fill="none" stroke="#91298A" stroke-width="4" stroke-miterlimit="10" x1="630.7" y1="134" x2="630" y2="248"/>
<line fill="none" stroke="#91298A" stroke-width="4" stroke-miterlimit="10" x1="640.7" y1="134" x2="640" y2="248"/>
<line fill="none" stroke="#91298A" stroke-width="4" stroke-miterlimit="10" x1="650.7" y1="134" x2="650" y2="248"/>
<line fill="none" stroke="#91298A" stroke-width="4" stroke-miterlimit="10" x1="660.7" y1="134" x2="660" y2="248"/>
<line fill="none" stroke="#91298A" stroke-width="4" stroke-miterlimit="10" x1="670.7" y1="134" x2="670" y2="248"/>
</svg>
