<?xml version="1.0" encoding="UTF-8"?><!DOCTYPE svg PUBLIC "-//W3C//DTD SVG 1.1//EN" "http://www.w3.org/Graphics/SVG/1.1/DTD/svg11.dtd"><svg xmlns="http://www.w3.org/2000/svg"><symbol id="social_dribbble" viewBox="0 0 256 256"><path fill="#FFF" d="M128 0C57.4 0 0 57.4 0 128s57.4 128 128 128 128-57.4 128-128S198.6 0 128 0zm84.6 59c15.2 18.6 24.4 42.3 24.7 68.1-3.6-.8-39.8-8.1-76.1-3.5-.8-1.9-1.6-3.8-2.4-5.6-2.3-5.3-4.7-10.6-7.3-15.8C192 85.6 210.3 62.1 212.6 59zM128 18.8c27.8 0 53.2 10.4 72.5 27.5-2 2.8-18.4 24.9-57.3 39.5-17.9-32.9-37.8-60-40.8-64 8.2-1.9 16.8-3 25.6-3zM81.5 29.2c2.9 4 22.4 31 40.5 63.2-51.1 13.6-96.1 13.4-101 13.4 7.1-34 29.9-62.1 60.5-76.6zm-62.8 99c0-1.1 0-2.2.1-3.3 4.8.1 57.8.8 112.4-15.6 3.1 6.1 6.1 12.3 8.9 18.6-1.4.4-2.9.8-4.3 1.3-56.4 18.2-86.4 67.9-88.9 72.1-17.6-19.4-28.2-45.1-28.2-73.1zM128 237.5c-25.3 0-48.6-8.6-67.1-23.1 2-4 24.1-46.8 85.8-68.3.2-.1.5-.2.7-.2 15.3 39.9 21.7 73.3 23.3 82.9-13.1 5.6-27.6 8.7-42.7 8.7zm61.1-18.7c-1.1-6.7-6.9-38.7-21.2-78 34.3-5.5 64.4 3.5 68.1 4.7-4.9 30.4-22.4 56.7-46.9 73.3z"/></symbol><symbol id="social_facebook" viewBox="0 0 256 256"><path fill="#FFF" d="M147.8 256V139.2H187l5.9-45.5h-45.1v-29c0-13.2 3.7-22.2 22.6-22.2h24.1V1.8C190.3 1.2 176 0 159.4 0c-34.7 0-58.5 21.2-58.5 60.2v33.6H61.5v45.5h39.3V256h47z"/></symbol><symbol id="social_github" viewBox="0 0 256 256"><path fill="#FFF" d="M128 3.2C57.3 3.2 0 60.5 0 131.2c0 56.5 36.7 104.5 87.5 121.5 6.4 1.2 8.7-2.8 8.7-6.2 0-3-.1-11.1-.2-21.8-35.5 7.7-43-17.2-43-17.2-5.8-14.8-14.2-18.7-14.2-18.7-11.6-7.9.9-7.8.9-7.8 12.8.9 19.6 13.2 19.6 13.2 11.4 19.6 30 13.9 37.3 10.6 1.2-8.3 4.5-13.9 8.1-17.1-28.4-3.2-58.3-14.2-58.3-63.3 0-14 5-25.4 13.2-34.3-1.3-3.2-5.7-16.3 1.3-33.9 0 0 10.7-3.4 35.2 13.1 10.2-2.8 21.2-4.3 32-4.3 10.9 0 21.8 1.5 32 4.3 24.4-16.6 35.2-13.1 35.2-13.1 7 17.6 2.6 30.6 1.3 33.9 8.2 8.9 13.2 20.4 13.2 34.3 0 49.2-29.9 60-58.4 63.2 4.6 4 8.7 11.8 8.7 23.7 0 17.1-.2 30.9-.2 35.1 0 3.4 2.3 7.4 8.8 6.2 50.8-17 87.5-64.9 87.5-121.4-.2-70.7-57.5-128-128.2-128z"/></symbol><symbol id="social_linkedin" viewBox="0 0 256 256"><g fill="#FFF"><path d="M4.2 85.1h53.1v170.7H4.2V85.1zM30.8.2C47.8.2 61.5 14 61.5 31S47.7 61.8 30.8 61.8C13.7 61.8 0 48 0 31S13.7.2 30.8.2M90.6 85.1h50.9v23.3h.7c7.1-13.4 24.4-27.6 50.2-27.6 53.7 0 63.6 35.3 63.6 81.3v93.6h-53v-83c0-19.8-.3-45.3-27.6-45.3-27.6 0-31.8 21.6-31.8 43.8v84.4h-53V85.1z"/></g></symbol><symbol id="social_twitter" viewBox="0 0 256 256"><path fill="#FFF" d="M256 48.6c-9.4 4.2-19.5 7-30.2 8.3 10.8-6.5 19.2-16.8 23.1-29.1-10.1 6-21.4 10.4-33.4 12.7C206 30.4 192.3 24 177.2 24c-29 0-52.5 23.5-52.5 52.5 0 4.1.5 8.1 1.4 12-43.7-2.2-82.4-23.1-108.3-54.9-4.5 7.8-7.1 16.8-7.1 26.4 0 18.2 9.3 34.3 23.4 43.7-8.6-.3-16.7-2.6-23.8-6.6v.7c0 25.4 18.1 46.7 42.1 51.5-4.4 1.2-9 1.8-13.8 1.8-3.4 0-6.7-.3-9.9-.9 6.7 20.9 26.1 36.1 49.1 36.5-18 14.1-40.6 22.5-65.2 22.5-4.2 0-8.4-.2-12.5-.7C23.2 223.3 50.9 232 80.5 232c96.6 0 149.4-80 149.4-149.4 0-2.3-.1-4.5-.2-6.8 10.4-7.4 19.3-16.7 26.3-27.2z"/></symbol></svg>