<?xml version="1.0" encoding="utf-8"?>
<!-- Generator: Adobe Illustrator 18.1.0, SVG Export Plug-In . SVG Version: 6.00 Build 0)  -->
<svg version="1.1" id="glitch" xmlns="http://www.w3.org/2000/svg" xmlns:xlink="http://www.w3.org/1999/xlink" x="0px" y="0px"
	 viewBox="0 0 1090 170" enable-background="new 0 0 1090 170" xml:space="preserve">
<g>
	<rect fill="#780794" width="20" height="60"/>
	<rect y="101" fill="#780794" width="20" height="20"/>
	<rect y="150" fill="#780794" width="20" height="20"/>
</g>
<g>
	<rect x="40" fill="#780794" width="20" height="60"/>
	<rect x="40" y="101" fill="#780794" width="20" height="20"/>
	<rect x="40" y="150" fill="#780794" width="20" height="20"/>
</g>
<g>
	<rect x="70" fill="#780794" width="20" height="60"/>
	<rect x="70" y="101" fill="#780794" width="20" height="20"/>
	<rect x="70" y="150" fill="#780794" width="20" height="20"/>
</g>
<g>
	<rect x="110" fill="#780794" width="20" height="60"/>
	<rect x="110" y="101" fill="#780794" width="20" height="20"/>
	<rect x="110" y="150" fill="#780794" width="20" height="20"/>
</g>
<g>
	<rect x="150" fill="#780794" width="20" height="60"/>
	<rect x="150" y="101" fill="#780794" width="20" height="20"/>
	<rect x="150" y="150" fill="#780794" width="20" height="20"/>
</g>
<g>
	<rect x="180" fill="#780794" width="20" height="60"/>
	<rect x="180" y="101" fill="#780794" width="20" height="20"/>
	<rect x="180" y="150" fill="#780794" width="20" height="20"/>
</g>
<g>
	<rect x="220" fill="#780794" width="20" height="60"/>
	<rect x="220" y="101" fill="#780794" width="20" height="20"/>
	<rect x="220" y="150" fill="#780794" width="20" height="20"/>
</g>
<g>
	<rect x="250" fill="#780794" width="20" height="60"/>
	<rect x="250" y="101" fill="#780794" width="20" height="20"/>
	<rect x="250" y="150" fill="#780794" width="20" height="20"/>
</g>
<g>
	<rect x="280" fill="#780794" width="20" height="60"/>
	<rect x="280" y="101" fill="#780794" width="20" height="20"/>
	<rect x="280" y="150" fill="#780794" width="20" height="20"/>
</g>
<g>
	<rect x="320" fill="#780794" width="20" height="60"/>
	<rect x="320" y="101" fill="#780794" width="20" height="20"/>
	<rect x="320" y="150" fill="#780794" width="20" height="20"/>
</g>
<g>
	<rect x="350" fill="#780794" width="20" height="60"/>
	<rect x="350" y="101" fill="#780794" width="20" height="20"/>
	<rect x="350" y="150" fill="#780794" width="20" height="20"/>
</g>
<g>
	<rect x="380" fill="#780794" width="20" height="60"/>
	<rect x="380" y="101" fill="#780794" width="20" height="20"/>
	<rect x="380" y="150" fill="#780794" width="20" height="20"/>
</g>
<g>
	<rect x="420" fill="#780794" width="20" height="60"/>
	<rect x="420" y="101" fill="#780794" width="20" height="20"/>
	<rect x="420" y="150" fill="#780794" width="20" height="20"/>
</g>
<g>
	<rect x="450" fill="#780794" width="20" height="60"/>
	<rect x="450" y="101" fill="#780794" width="20" height="20"/>
	<rect x="450" y="150" fill="#780794" width="20" height="20"/>
</g>
<g>
	<rect x="490" fill="#780794" width="20" height="60"/>
	<rect x="490" y="101" fill="#780794" width="20" height="20"/>
	<rect x="490" y="150" fill="#780794" width="20" height="20"/>
</g>
<g>
	<rect x="520" fill="#780794" width="20" height="60"/>
	<rect x="520" y="101" fill="#780794" width="20" height="20"/>
	<rect x="520" y="150" fill="#780794" width="20" height="20"/>
</g>
<g>
	<rect x="560" fill="#780794" width="20" height="60"/>
	<rect x="560" y="101" fill="#780794" width="20" height="20"/>
	<rect x="560" y="150" fill="#780794" width="20" height="20"/>
</g>
<g>
	<rect x="590" fill="#780794" width="20" height="60"/>
	<rect x="590" y="101" fill="#780794" width="20" height="20"/>
	<rect x="590" y="150" fill="#780794" width="20" height="20"/>
</g>
<g>
	<rect x="620" fill="#780794" width="20" height="60"/>
	<rect x="620" y="101" fill="#780794" width="20" height="20"/>
	<rect x="620" y="150" fill="#780794" width="20" height="20"/>
</g>
<g>
	<rect x="650" fill="#780794" width="20" height="60"/>
	<rect x="650" y="101" fill="#780794" width="20" height="20"/>
	<rect x="650" y="150" fill="#780794" width="20" height="20"/>
</g>
<g>
	<rect x="690" fill="#780794" width="400" height="60"/>
	<rect x="690" y="101" fill="#780794" width="400" height="20"/>
	<rect x="690" y="150" fill="#780794" width="400" height="20"/>
</g>
</svg>
