<?xml version="1.0" encoding="utf-8"?>
<!-- Generator: Adobe Illustrator 17.0.0, SVG Export Plug-In . SVG Version: 6.00 Build 0)  -->
<!DOCTYPE svg PUBLIC "-//W3C//DTD SVG 1.1//EN" "http://www.w3.org/Graphics/SVG/1.1/DTD/svg11.dtd">
<svg version="1.1" id="Layer_1" xmlns="http://www.w3.org/2000/svg" xmlns:xlink="http://www.w3.org/1999/xlink" x="0px" y="0px"
	 width="650px" height="95px" viewBox="0 0 650 95" enable-background="new 0 0 650 95" xml:space="preserve">
<g id="Logo">
	<g>
		<rect x="57.651" fill="#FFFFFF" width="18.884" height="18.884"/>
		<polygon fill="#FFFFFF" points="648.712,70.948 596.647,18.884 577.764,18.884 577.764,94.418 596.647,94.418 596.647,45.589 
			629.982,78.924 629.982,94.553 648.866,94.553 		"/>
		<polygon fill="#FFFFFF" points="649,18.706 630.116,18.706 630.116,37.589 649,56.473 		"/>
		<path fill="#FFFFFF" d="M531.343,19.095c-20.858,0-37.767,16.909-37.767,37.767s16.909,37.767,37.767,37.767
			c20.858,0,37.767-16.909,37.767-37.767S552.202,19.095,531.343,19.095z M531.343,75.746c-10.429,0-18.884-8.454-18.884-18.884
			s8.455-18.884,18.884-18.884c10.429,0,18.884,8.454,18.884,18.884S541.773,75.746,531.343,75.746z"/>
		<path fill="#FFFFFF" d="M409.543,56.863c0,20.858,16.909,37.767,37.767,37.767c20.858,0,37.767-16.909,37.767-37.767
			s-16.909-37.767-37.767-37.767C426.452,19.095,409.543,36.004,409.543,56.863z M428.427,56.863
			c0-10.429,8.454-18.884,18.884-18.884c10.429,0,18.884,8.454,18.884,18.884s-8.455,18.884-18.884,18.884
			C436.882,75.746,428.427,67.292,428.427,56.863z"/>
		<polygon fill="#FFFFFF" points="382.006,19.007 382.006,19.312 381.808,19.114 356.173,44.749 330.735,19.312 330.735,19.007 
			311.879,19.007 311.879,94.418 330.735,94.418 330.735,46.866 356.173,72.304 382.006,46.471 382.006,94.418 400.862,94.418 
			400.862,19.007 		"/>
	</g>
	<g>
		<path fill="#0491C9" d="M265.372,18.99c-20.858,0-37.767,16.909-37.767,37.767s16.909,37.767,37.767,37.767
			c20.858,0,37.767-16.909,37.767-37.767S286.23,18.99,265.372,18.99z M265.372,75.641c-10.429,0-18.884-8.454-18.884-18.884
			s8.455-18.884,18.884-18.884c10.429,0,18.884,8.454,18.884,18.884S275.801,75.641,265.372,75.641z"/>
		<polygon fill="#0491C9" points="57.651,37.873 57.651,37.873 19.884,37.873 19.884,0.106 1,0.106 1,93.58 19.884,93.58 
			19.884,56.757 57.651,56.757 57.651,93.58 76.535,93.58 76.535,37.873 		"/>
		<path fill="#0491C9" d="M135.017,71.875c-3.149,2.353-7.04,3.765-11.273,3.765c-10.429,0-18.884-8.454-18.884-18.884
			s8.455-18.884,18.884-18.884c9.48,0,17.306,6.994,18.656,16.099l-4.464,0.02h-19.857l16.969,16.995h23.682
			c1.789-4.393,2.782-9.194,2.782-14.23c0-20.858-16.909-37.767-37.767-37.767S85.977,35.899,85.977,56.757
			s16.909,37.767,37.767,37.767c9.445,0,18.073-3.475,24.695-9.206L135.017,71.875z"/>
		<rect x="170.953" y="0.106" fill="#0491C9" width="18.884" height="94.419"/>
		<rect x="200.223" y="0.106" fill="#0491C9" width="18.884" height="94.419"/>
	</g>
</g>
</svg>
