<?xml version="1.0" encoding="utf-8"?>
<!-- Generator: Adobe Illustrator 17.0.0, SVG Export Plug-In . SVG Version: 6.00 Build 0)  -->
<!DOCTYPE svg PUBLIC "-//W3C//DTD SVG 1.1//EN" "http://www.w3.org/Graphics/SVG/1.1/DTD/svg11.dtd">
<svg version="1.1" id="Layer_1" xmlns="http://www.w3.org/2000/svg" xmlns:xlink="http://www.w3.org/1999/xlink" x="0px" y="0px"
	 width="1080px" height="950px" viewBox="0 0 1080 950" enable-background="new 0 0 1080 950" xml:space="preserve">
<g>
	<g>
		<polygon fill="#91298A" points="849,0 838,0 459,0 459,6 838,6 838,24 1078,24 1078,0 		"/>
		<polyline fill="#91298A" points="-1,6 186,6 186,0 -1,0 		"/>
	</g>
</g>
<g>
	<g>
		<polygon fill="#91298A" points="849,30 838,30 459,30 459,36 838,36 838,54 1078,54 1078,30 		"/>
		<polyline fill="#91298A" points="-1,36 186,36 186,30 -1,30 		"/>
	</g>
</g>
<g>
	<g>
		<polygon fill="#91298A" points="849,60 838,60 459,60 459,66 838,66 838,84 1078,84 1078,60 		"/>
		<polyline fill="#91298A" points="-1,66 186,66 186,60 -1,60 		"/>
	</g>
</g>
<g>
	<g>
		<polygon fill="#91298A" points="849,90 838,90 459,90 459,96 838,96 838,114 1078,114 1078,90 		"/>
		<polyline fill="#91298A" points="-1,96 186,96 186,90 -1,90 		"/>
	</g>
</g>
<g>
	<g>
		<polygon fill="#91298A" points="849,120 838,120 459,120 459,126 838,126 838,144 1078,144 1078,120 		"/>
		<polyline fill="#91298A" points="-1,126 186,126 186,120 -1,120 		"/>
	</g>
</g>
<g>
	<g>
		<polygon fill="#91298A" points="849,150 838,150 459,150 459,156 838,156 838,174 1078,174 1078,150 		"/>
		<polyline fill="#91298A" points="-1,156 186,156 186,150 -1,150 		"/>
	</g>
</g>
<g>
	<g>
		<polygon fill="#91298A" points="849,180 838,180 459,180 459,186 838,186 838,204 1078,204 1078,180 		"/>
		<polyline fill="#91298A" points="-1,186 186,186 186,180 -1,180 		"/>
	</g>
</g>
<g>
	<g>
		<polygon fill="#91298A" points="849,210 838,210 459,210 459,216 838,216 838,234 1078,234 1078,210 		"/>
		<polyline fill="#91298A" points="-1,216 186,216 186,210 -1,210 		"/>
	</g>
</g>
<g>
	<g>
		<polygon fill="#91298A" points="849,240 838,240 459,240 459,246 838,246 838,264 1078,264 1078,240 		"/>
		<polyline fill="#91298A" points="-1,246 186,246 186,240 -1,240 		"/>
	</g>
</g>
<g>
	<g>
		<polygon fill="#91298A" points="849,270 838,270 459,270 459,276 838,276 838,294 1078,294 1078,270 		"/>
		<polyline fill="#91298A" points="-1,276 186,276 186,270 -1,270 		"/>
	</g>
</g>
<g>
	<g>
		<polygon fill="#91298A" points="849,300 838,300 459,300 459,306 838,306 838,324 1078,324 1078,300 		"/>
		<polyline fill="#91298A" points="-1,306 186,306 186,300 -1,300 		"/>
	</g>
</g>
<g>
	<g>
		<polygon fill="#91298A" points="849,330 838,330 459,330 459,336 838,336 838,354 1078,354 1078,330 		"/>
		<polyline fill="#91298A" points="-1,336 186,336 186,330 -1,330 		"/>
	</g>
</g>
<g>
	<g>
		<polygon fill="#91298A" points="849,360 838,360 459,360 459,366 838,366 838,384 1078,384 1078,360 		"/>
		<polyline fill="#91298A" points="-1,366 186,366 186,360 -1,360 		"/>
	</g>
</g>
<g>
	<g>
		<polygon fill="#91298A" points="849,390 838,390 459,390 459,396 838,396 838,414 1078,414 1078,390 		"/>
		<polyline fill="#91298A" points="-1,396 186,396 186,390 -1,390 		"/>
	</g>
</g>
<g>
	<g>
		<polygon fill="#91298A" points="849,420 838,420 459,420 459,426 838,426 838,444 1078,444 1078,420 		"/>
		<polyline fill="#91298A" points="-1,426 186,426 186,420 -1,420 		"/>
	</g>
</g>
<g>
	<g>
		<polygon fill="#91298A" points="849,450 838,450 459,450 459,456 838,456 838,474 1078,474 1078,450 		"/>
		<polyline fill="#91298A" points="-1,456 186,456 186,450 -1,450 		"/>
	</g>
</g>
<g>
	<g>
		<polygon fill="#91298A" points="849,480 838,480 459,480 459,486 838,486 838,504 1078,504 1078,480 		"/>
		<polyline fill="#91298A" points="-1,486 186,486 186,480 -1,480 		"/>
	</g>
</g>
<g>
	<g>
		<polygon fill="#91298A" points="849,510 838,510 459,510 459,516 838,516 838,534 1078,534 1078,510 		"/>
		<polyline fill="#91298A" points="-1,516 186,516 186,510 -1,510 		"/>
	</g>
</g>
<g>
	<g>
		<polygon fill="#91298A" points="849,540 838,540 459,540 459,546 838,546 838,564 1078,564 1078,540 		"/>
		<polyline fill="#91298A" points="-1,546 186,546 186,540 -1,540 		"/>
	</g>
</g>
<g>
	<g>
		<polygon fill="#91298A" points="849,570 838,570 459,570 459,576 838,576 838,594 1078,594 1078,570 		"/>
		<polyline fill="#91298A" points="-1,576 186,576 186,570 -1,570 		"/>
	</g>
</g>
<g>
	<g>
		<polygon fill="#91298A" points="849,746 838,746 459,746 459,752 838,752 838,770 1078,770 1078,746 		"/>
		<polyline fill="#91298A" points="-1,752 186,752 186,746 -1,746 		"/>
	</g>
</g>
<g>
	<g>
		<polygon fill="#91298A" points="849,776 838,776 459,776 459,782 838,782 838,800 1078,800 1078,776 		"/>
		<polyline fill="#91298A" points="-1,782 186,782 186,776 -1,776 		"/>
	</g>
</g>
<g>
	<g>
		<polygon fill="#91298A" points="849,806 838,806 459,806 459,812 838,812 838,830 1078,830 1078,806 		"/>
		<polyline fill="#91298A" points="-1,812 186,812 186,806 -1,806 		"/>
	</g>
</g>
<g>
	<g>
		<polygon fill="#91298A" points="849,836 838,836 459,836 459,842 838,842 838,860 1078,860 1078,836 		"/>
		<polyline fill="#91298A" points="-1,842 186,842 186,836 -1,836 		"/>
	</g>
</g>
<g>
	<g>
		<polygon fill="#91298A" points="849,866 838,866 459,866 459,872 838,872 838,890 1078,890 1078,866 		"/>
		<polyline fill="#91298A" points="-1,872 186,872 186,866 -1,866 		"/>
	</g>
</g>
<g>
	<g>
		<polygon fill="#91298A" points="849,896 838,896 459,896 459,902 838,902 838,920 1078,920 1078,896 		"/>
		<polyline fill="#91298A" points="-1,902 186,902 186,896 -1,896 		"/>
	</g>
</g>
<g>
	<g>
		<polygon fill="#91298A" points="849,600 838,600 459,600 459,606 838,606 838,624 1078,624 1078,600 		"/>
		<polyline fill="#91298A" points="-1,606 186,606 186,600 -1,600 		"/>
	</g>
</g>
<g>
	<g>
		<polygon fill="#91298A" points="849,926 838,926 459,926 459,932 838,932 838,950 1078,950 1078,926 		"/>
		<polyline fill="#91298A" points="-1,932 186,932 186,926 -1,926 		"/>
	</g>
</g>
</svg>
