<?xml version="1.0" encoding="UTF-8" standalone="no"?>
<svg width="2007px" height="2007px" viewBox="0 0 2007 2007" version="1.1" xmlns="http://www.w3.org/2000/svg" xmlns:xlink="http://www.w3.org/1999/xlink" xmlns:sketch="http://www.bohemiancoding.com/sketch/ns">
    <!-- Generator: Sketch 3.2.2 (9983) - http://www.bohemiancoding.com/sketch -->
    <title>Untitled 2</title>
    <desc>Created with Sketch.</desc>
    <defs></defs>
    <g id="Page-1" stroke="none" stroke-width="1" fill="none" fill-rule="evenodd" sketch:type="MSPage">
        <g id="Group" sketch:type="MSLayerGroup" transform="translate(1.000000, 1.000000)" stroke="#979797" stroke-linecap="square">
            <path d="M648.446609,147.032396 L1355.55339,854.139177" id="12" sketch:type="MSShapeGroup" transform="translate(1002.000000, 500.585786) rotate(-135.000000) translate(-1002.000000, -500.585786) "></path>
            <path d="M397.739503,214.209163 L1104.84628,921.315944" id="11" sketch:type="MSShapeGroup" transform="translate(751.292893, 567.762553) rotate(-165.000000) translate(-751.292893, -567.762553) "></path>
            <path d="M214.209163,397.739503 L921.315944,1104.84628" id="10" sketch:type="MSShapeGroup" transform="translate(567.762553, 751.292893) rotate(-195.000000) translate(-567.762553, -751.292893) "></path>
            <path d="M147.032396,648.446609 L854.139177,1355.55339" id="9" sketch:type="MSShapeGroup" transform="translate(500.585786, 1002.000000) rotate(-225.000000) translate(-500.585786, -1002.000000) "></path>
            <path d="M214.209163,899.153716 L921.315944,1606.2605" id="8" sketch:type="MSShapeGroup" transform="translate(567.762553, 1252.707107) rotate(-255.000000) translate(-567.762553, -1252.707107) "></path>
            <path d="M397.739503,1082.68406 L1104.84628,1789.79084" id="7" sketch:type="MSShapeGroup" transform="translate(751.292893, 1436.237447) rotate(-285.000000) translate(-751.292893, -1436.237447) "></path>
            <path d="M648.446609,1151.12403 L1355.55339,1858.23081" id="6" sketch:type="MSShapeGroup" transform="translate(1002.000000, 1504.677416) rotate(-135.000000) translate(-1002.000000, -1504.677416) "></path>
            <path d="M899.785317,1083.77802 L1606.8921,1790.8848" id="5" sketch:type="MSShapeGroup" transform="translate(1253.338708, 1437.331412) rotate(-165.000000) translate(-1253.338708, -1437.331412) "></path>
            <path d="M1083.77802,899.785317 L1790.8848,1606.8921" id="4" sketch:type="MSShapeGroup" transform="translate(1437.331412, 1253.338708) rotate(-195.000000) translate(-1437.331412, -1253.338708) "></path>
            <path d="M1151.12403,648.446609 L1858.23081,1355.55339" id="3" sketch:type="MSShapeGroup" transform="translate(1504.677416, 1002.000000) rotate(-225.000000) translate(-1504.677416, -1002.000000) "></path>
            <path d="M1083.77802,397.107902 L1790.8848,1104.21468" id="2" sketch:type="MSShapeGroup" transform="translate(1437.331412, 750.661292) rotate(-255.000000) translate(-1437.331412, -750.661292) "></path>
            <path d="M899.785317,213.115197 L1606.8921,920.221979" id="1" sketch:type="MSShapeGroup" transform="translate(1253.338708, 566.668588) rotate(-285.000000) translate(-1253.338708, -566.668588) "></path>
        </g>
    </g>
</svg>