<?xml version="1.0" encoding="utf-8"?>
<!-- Generator: Adobe Illustrator 18.1.0, SVG Export Plug-In . SVG Version: 6.00 Build 0)  -->
<svg version="1.1" id="Glitch" xmlns="http://www.w3.org/2000/svg" xmlns:xlink="http://www.w3.org/1999/xlink" x="0px" y="0px"
	 viewBox="0 0 824 197" enable-background="new 0 0 824 197" xml:space="preserve">
<line fill="none" stroke="#91298A" stroke-width="4" stroke-miterlimit="10" x1="0.7" y1="0" x2="0" y2="196"/>
<line fill="none" stroke="#91298A" stroke-width="4" stroke-miterlimit="10" x1="10.7" y1="0" x2="10" y2="196"/>
<line fill="none" stroke="#91298A" stroke-width="4" stroke-miterlimit="10" x1="30.7" y1="0" x2="30" y2="196"/>
<line fill="none" stroke="#91298A" stroke-width="4" stroke-miterlimit="10" x1="40.7" y1="0" x2="40" y2="196"/>
<line fill="none" stroke="#91298A" stroke-width="4" stroke-miterlimit="10" x1="50.7" y1="0" x2="50" y2="196"/>
<line fill="none" stroke="#91298A" stroke-width="4" stroke-miterlimit="10" x1="70.7" y1="0" x2="70" y2="196"/>
<line fill="none" stroke="#91298A" stroke-width="4" stroke-miterlimit="10" x1="80.7" y1="0" x2="80" y2="196"/>
<line fill="none" stroke="#91298A" stroke-width="4" stroke-miterlimit="10" x1="90.7" y1="0" x2="90" y2="196"/>
<line fill="none" stroke="#91298A" stroke-width="4" stroke-miterlimit="10" x1="150.7" y1="0" x2="150" y2="196"/>
<line fill="none" stroke="#91298A" stroke-width="4" stroke-miterlimit="10" x1="160.7" y1="0" x2="160" y2="196"/>
<line fill="none" stroke="#91298A" stroke-width="4" stroke-miterlimit="10" x1="170.7" y1="0" x2="170" y2="196"/>
<line fill="none" stroke="#91298A" stroke-width="4" stroke-miterlimit="10" x1="180.7" y1="0" x2="180" y2="196"/>
<line fill="none" stroke="#91298A" stroke-width="4" stroke-miterlimit="10" x1="190.7" y1="0" x2="190" y2="196"/>
<line fill="none" stroke="#91298A" stroke-width="4" stroke-miterlimit="10" x1="200.7" y1="0" x2="200" y2="196"/>
<line fill="none" stroke="#91298A" stroke-width="4" stroke-miterlimit="10" x1="220.7" y1="0" x2="220" y2="96"/>
<line fill="none" stroke="#91298A" stroke-width="4" stroke-miterlimit="10" x1="230.7" y1="0" x2="230" y2="96"/>
<line fill="none" stroke="#91298A" stroke-width="4" stroke-miterlimit="10" x1="250.7" y1="0" x2="250" y2="96"/>
<line fill="none" stroke="#91298A" stroke-width="4" stroke-miterlimit="10" x1="260.7" y1="0" x2="260" y2="96"/>
<line fill="none" stroke="#91298A" stroke-width="4" stroke-miterlimit="10" x1="270.7" y1="0" x2="270" y2="96"/>
<line fill="none" stroke="#91298A" stroke-width="4" stroke-miterlimit="10" x1="280.7" y1="0" x2="280" y2="96"/>
<line fill="none" stroke="#91298A" stroke-width="4" stroke-miterlimit="10" x1="300.7" y1="0" x2="300" y2="96"/>
<line fill="none" stroke="#91298A" stroke-width="4" stroke-miterlimit="10" x1="310.7" y1="0" x2="310" y2="96"/>
<line fill="none" stroke="#91298A" stroke-width="4" stroke-miterlimit="10" x1="360.7" y1="0" x2="360" y2="196"/>
<line fill="none" stroke="#91298A" stroke-width="4" stroke-miterlimit="10" x1="370.7" y1="0" x2="370" y2="196"/>
<line fill="none" stroke="#91298A" stroke-width="4" stroke-miterlimit="10" x1="380.7" y1="0" x2="380" y2="196"/>
<line fill="none" stroke="#91298A" stroke-width="4" stroke-miterlimit="10" x1="390.7" y1="0" x2="390" y2="196"/>
<line fill="none" stroke="#91298A" stroke-width="4" stroke-miterlimit="10" x1="410.7" y1="0" x2="410" y2="196"/>
<line fill="none" stroke="#91298A" stroke-width="4" stroke-miterlimit="10" x1="480.7" y1="0" x2="480" y2="196"/>
<line fill="none" stroke="#91298A" stroke-width="4" stroke-miterlimit="10" x1="490.7" y1="0" x2="490" y2="196"/>
<line fill="none" stroke="#91298A" stroke-width="4" stroke-miterlimit="10" x1="520.7" y1="0" x2="520" y2="196"/>
<line fill="none" stroke="#91298A" stroke-width="4" stroke-miterlimit="10" x1="530.7" y1="0" x2="530" y2="196"/>
<line fill="none" stroke="#91298A" stroke-width="4" stroke-miterlimit="10" x1="540.7" y1="0" x2="540" y2="196"/>
<line fill="none" stroke="#91298A" stroke-width="4" stroke-miterlimit="10" x1="560.7" y1="0" x2="560" y2="196"/>
<line fill="none" stroke="#91298A" stroke-width="4" stroke-miterlimit="10" x1="580.7" y1="0" x2="580" y2="196"/>
<line fill="none" stroke="#91298A" stroke-width="4" stroke-miterlimit="10" x1="629.7" y1="0" x2="629" y2="196"/>
<line fill="none" stroke="#91298A" stroke-width="4" stroke-miterlimit="10" x1="659.7" y1="0" x2="659" y2="196"/>
<line fill="none" stroke="#91298A" stroke-width="4" stroke-miterlimit="10" x1="669.7" y1="0" x2="669" y2="196"/>
<line fill="none" stroke="#91298A" stroke-width="4" stroke-miterlimit="10" x1="679.7" y1="0" x2="679" y2="196"/>
<line fill="none" stroke="#91298A" stroke-width="4" stroke-miterlimit="10" x1="689.7" y1="0" x2="689" y2="196"/>
<line fill="none" stroke="#91298A" stroke-width="4" stroke-miterlimit="10" x1="699.7" y1="0" x2="699" y2="196"/>
<line fill="none" stroke="#91298A" stroke-width="4" stroke-miterlimit="10" x1="709.7" y1="0" x2="709" y2="196"/>
<line fill="none" stroke="#91298A" stroke-width="4" stroke-miterlimit="10" x1="739.7" y1="0" x2="739" y2="146"/>
<line fill="none" stroke="#91298A" stroke-width="4" stroke-miterlimit="10" x1="749.7" y1="0" x2="749" y2="146"/>
<line fill="none" stroke="#91298A" stroke-width="4" stroke-miterlimit="10" x1="779.7" y1="0" x2="779" y2="196"/>
<line fill="none" stroke="#91298A" stroke-width="4" stroke-miterlimit="10" x1="789.7" y1="0" x2="789" y2="196"/>
<line fill="none" stroke="#91298A" stroke-width="4" stroke-miterlimit="10" x1="799.7" y1="0" x2="799" y2="196"/>
<line fill="none" stroke="#91298A" stroke-width="4" stroke-miterlimit="10" x1="809.7" y1="0" x2="809" y2="196"/>
<line fill="none" stroke="#91298A" stroke-width="4" stroke-miterlimit="10" x1="819.7" y1="0" x2="819" y2="196"/>
</svg>
